<?xml version="1.0" encoding="UTF-8"?>
<svg fill="#FF7A60" width="100pt" height="100pt" version="1.1" viewBox="0 0 100 100" xmlns="http://www.w3.org/2000/svg">
 <path d="m50 5c24.828 0 45 20.172 45 45s-20.172 45-45 45-45-20.172-45-45 20.172-45 45-45zm0 4c-22.668 0-41 18.332-41 41 0 7.457 2 14.449 5.4688 20.469 3.4453-2.1445 7.6875-3.4375 11.156-2.375 4.1484 1.3672 5.8828 4.5742 7.125 6.6875 0.62109 1.0586 1.1641 1.8398 1.75 2.3125 0.58203 0.46875 1.2109 0.78125 2.5938 0.78125 1.3359 0.10156 2.3398-0.52734 3.0312-1.25 0.70312-0.74609 1.2891-1.9453 1.9062-3.3125s1.2578-2.8867 2.5-4.2188 3.2344-2.2461 5.5938-2.0938c2.918 0.44922 5.0508 1.9492 6.25 3.75 1.1367 1.7695 1.4961 3.6719 1.8125 5.2812s0.61328 2.9258 1.0938 3.6562c0.46875 0.71484 0.99609 1.1406 2.75 1.2812 1.4492-0.066406 1.9492-0.43359 2.5-1.2188 0.56641-0.80859 1.0078-2.2031 1.5-3.8125s1.0156-3.4648 2.3125-5.0625c2.0078-2.2031 4.1797-2.7188 6.3125-2.7812 3.9102 0.050781 7.3633 2.1875 9 5.3125 4.6211-6.6367 7.3438-14.695 7.3438-23.406 0-22.668-18.332-41-41-41zm13.719 7c0.51172 0 1.0156 0.17188 1.4062 0.5625 0.78125 0.78125 0.78125 2.0625 0 2.8438l-4.25 4.25c-0.78125 0.78125-2.0312 0.78125-2.8125 0s-0.78125-2.0625 0-2.8438l4.2188-4.25c0.39062-0.39062 0.92578-0.5625 1.4375-0.5625zm-31.594 4.25c0.64062 0.046875 1.25 0.40234 1.5938 1l3 5.1875c0.55078 0.95703 0.23828 2.1992-0.71875 2.75s-2.168 0.20703-2.7188-0.75l-3-5.1875c-0.55078-0.95703-0.23828-2.1992 0.71875-2.75 0.35938-0.20703 0.74219-0.27734 1.125-0.25zm23.531 7.0312c0.25781 0.03125 0.51172 0.14453 0.75 0.28125l5.1875 3c0.95703 0.55078 1.3008 1.7617 0.75 2.7188s-1.793 1.2695-2.75 0.71875l-5.1875-3c-0.95703-0.55078-1.3008-1.7617-0.75-2.7188 0.41406-0.71875 1.2266-1.0977 2-1zm21.219 4.8438c0.51172 0 1.0156 0.20312 1.4062 0.59375l4.25 4.25c0.78125 0.78125 0.78125 2.0312 0 2.8125s-2.0312 0.78125-2.8125 0l-4.25-4.25c-0.78125-0.78125-0.78125-2.0312 0-2.8125 0.39062-0.39062 0.89453-0.59375 1.4062-0.59375zm-40.02 1.625c0.25781 0.03125 0.51172 0.14453 0.75 0.28125 0.95703 0.55078 1.2695 1.7617 0.71875 2.7188l-3 5.1875c-0.55078 0.95703-1.7617 1.3008-2.7188 0.75s-1.3008-1.793-0.75-2.75l3-5.1875c0.41406-0.71875 1.2266-1.0977 2-1zm-17.855 1.0312c0.64062 0.046875 1.25 0.40234 1.5938 1l3 5.1875c0.55078 0.95703 0.23828 2.1992-0.71875 2.75s-2.1992 0.20703-2.75-0.75l-3-5.1875c-0.55078-0.95703-0.20703-2.168 0.75-2.7188 0.35938-0.20703 0.74219-0.30859 1.125-0.28125zm31 1.2188c7.707 0 14 6.293 14 14s-6.293 14-14 14-14-6.293-14-14 6.293-14 14-14zm0 4c-5.5469 0-10 4.4531-10 10s4.4531 10 10 10 10-4.4531 10-10-4.4531-10-10-10zm22.75 2.5938c0.51172 0 1.0156 0.17188 1.4062 0.5625 0.78125 0.78125 0.78125 2.0625 0 2.8438l-4.25 4.25c-0.78125 0.78125-2.0312 0.78125-2.8125 0s-0.78125-2.0625 0-2.8438l4.2188-4.25c0.39062-0.39062 0.92578-0.5625 1.4375-0.5625zm-50.156 9.625c2.0469 0.42969 4.1367 1.0703 6.1875 1.625 1.0664 0.28516 1.7227 1.3711 1.4375 2.4375s-1.4023 1.6914-2.4688 1.4062l-5.7812-1.5312c-1.0664-0.28516-1.6914-1.4023-1.4062-2.4688 0.25-0.93359 1.1016-1.5234 2.0312-1.4688zm53.406 2.375c0.64062 0.046875 1.25 0.40234 1.5938 1l3 5.1875c0.55078 0.95703 0.23828 2.168-0.71875 2.7188s-2.1992 0.23828-2.75-0.71875l-3-5.1875c-0.55078-0.95703-0.20703-2.1992 0.75-2.75 0.35938-0.20703 0.74219-0.27734 1.125-0.25zm-26.281 16.406c-1.2344-0.050781-1.7305 0.22266-2.2812 0.8125-0.58203 0.625-1.125 1.7734-1.75 3.1562s-1.3477 3.0117-2.6562 4.4062c-2 1.9922-3.9141 2.4141-5.875 2.5-2.1289 0.011719-3.8867-0.63672-5.1562-1.6562s-2.0234-2.2773-2.6875-3.4062c-1.3203-2.25-2.1484-3.9805-4.9062-4.9062-1.3867-0.44141-3.4219-0.61719-7.7812 1.9375 7.4336 10.391 19.609 17.156 33.375 17.156 12.211 0 23.148-5.332 30.656-13.781-0.12109-2.8594-2.5508-5.0547-6-5.125-1.2617 0.089844-2.5078 0.49219-3.1875 1.3125-0.64453 0.79297-1.1484 2.125-1.625 3.6875s-0.93359 3.3594-2.0625 4.9688-3.1445 2.8594-5.7188 2.9375c-2.5586-0.046875-4.9492-1.3867-6.125-3.0938-1.1055-1.6758-1.375-3.5-1.6875-5.0938s-0.65625-2.9805-1.25-3.9062c-0.58594-0.91016-1.3281-1.5352-3.2812-1.9062z"/>
</svg>
